<mxfile host="app.diagrams.net" modified="2020-11-10T03:15:17.328Z" agent="5.0 (Windows NT 10.0; Win64; x64) AppleWebKit/537.36 (KHTML, like Gecko) Chrome/86.0.4240.183 Safari/537.36 Edg/86.0.622.63" etag="7qbXRoApxKyFc0tMgvsr" version="13.9.2" type="github">
  <diagram id="G9nLIPtjIvCkd5KBR_jc" name="Page-1">
    <mxGraphModel dx="1422" dy="804" grid="1" gridSize="10" guides="1" tooltips="1" connect="1" arrows="1" fold="1" page="1" pageScale="1" pageWidth="827" pageHeight="1169" math="0" shadow="0">
      <root>
        <mxCell id="0" />
        <mxCell id="1" parent="0" />
        <mxCell id="iSVWFOQklcwFUG7ZpWNp-3" value="" style="edgeStyle=orthogonalEdgeStyle;rounded=0;orthogonalLoop=1;jettySize=auto;html=1;" edge="1" parent="1" source="iSVWFOQklcwFUG7ZpWNp-1" target="iSVWFOQklcwFUG7ZpWNp-2">
          <mxGeometry relative="1" as="geometry" />
        </mxCell>
        <mxCell id="iSVWFOQklcwFUG7ZpWNp-1" value="找到api接口文档" style="rounded=0;whiteSpace=wrap;html=1;" vertex="1" parent="1">
          <mxGeometry x="420" y="200" width="120" height="60" as="geometry" />
        </mxCell>
        <mxCell id="iSVWFOQklcwFUG7ZpWNp-5" value="" style="edgeStyle=orthogonalEdgeStyle;rounded=0;orthogonalLoop=1;jettySize=auto;html=1;" edge="1" parent="1" source="iSVWFOQklcwFUG7ZpWNp-2" target="iSVWFOQklcwFUG7ZpWNp-4">
          <mxGeometry relative="1" as="geometry" />
        </mxCell>
        <mxCell id="iSVWFOQklcwFUG7ZpWNp-2" value="在路径常量类中添加api路径" style="rounded=0;whiteSpace=wrap;html=1;" vertex="1" parent="1">
          <mxGeometry x="420" y="290" width="120" height="60" as="geometry" />
        </mxCell>
        <mxCell id="iSVWFOQklcwFUG7ZpWNp-7" value="" style="edgeStyle=orthogonalEdgeStyle;rounded=0;orthogonalLoop=1;jettySize=auto;html=1;" edge="1" parent="1" source="iSVWFOQklcwFUG7ZpWNp-4" target="iSVWFOQklcwFUG7ZpWNp-6">
          <mxGeometry relative="1" as="geometry" />
        </mxCell>
        <mxCell id="iSVWFOQklcwFUG7ZpWNp-4" value="定义出参类型" style="rounded=0;whiteSpace=wrap;html=1;" vertex="1" parent="1">
          <mxGeometry x="420" y="380" width="120" height="60" as="geometry" />
        </mxCell>
        <mxCell id="iSVWFOQklcwFUG7ZpWNp-9" value="" style="edgeStyle=orthogonalEdgeStyle;rounded=0;orthogonalLoop=1;jettySize=auto;html=1;" edge="1" parent="1" source="iSVWFOQklcwFUG7ZpWNp-6" target="iSVWFOQklcwFUG7ZpWNp-8">
          <mxGeometry relative="1" as="geometry" />
        </mxCell>
        <mxCell id="iSVWFOQklcwFUG7ZpWNp-6" value="创建入参json文件" style="rounded=0;whiteSpace=wrap;html=1;" vertex="1" parent="1">
          <mxGeometry x="420" y="470" width="120" height="60" as="geometry" />
        </mxCell>
        <mxCell id="iSVWFOQklcwFUG7ZpWNp-8" value="创建出参json文件" style="whiteSpace=wrap;html=1;rounded=0;" vertex="1" parent="1">
          <mxGeometry x="420" y="560" width="120" height="60" as="geometry" />
        </mxCell>
      </root>
    </mxGraphModel>
  </diagram>
</mxfile>
